Coordinates
version=1
nRows=22
nColumns=24
inDegrees=yes

Units are S.I. units (second, meters, Newtons, ...)
Angles are in degrees.

endheader
time	pelvis_tilt	pelvis_list	pelvis_rotation	pelvis_tx	pelvis_ty	pelvis_tz	hip_flexion_r	hip_adduction_r	hip_rotation_r	knee_angle_r	ankle_angle_r	subtalar_angle_r	mtp_angle_r	hip_flexion_l	hip_adduction_l	hip_rotation_l	knee_angle_l	ankle_angle_l	subtalar_angle_l	mtp_angle_l	lumbar_extension	lumbar_bending	lumbar_rotation
      0.01000000	     57.37924024	      4.39018017	     -4.34628435	      1.28679475	      1.04441400	     -0.28754468	     23.34261667	     -5.54611333	     -2.02998080	     -8.36525128	    -29.30466276	      0.00000000	      0.00000000	     13.71279190	    -11.21774178	     -5.79327933	    -63.66541353	    -14.03760584	      0.00000000	      0.00000000	      0.00000000	      0.00000000	      0.00000000
      0.02000000	     57.38070187	      4.39959574	     -4.34552436	      1.28675954	      1.04435747	     -0.28751124	     23.35077740	     -5.55887025	     -2.02809318	     -8.37667886	    -29.30534859	      0.00000000	      0.00000000	     13.71595316	    -11.20625303	     -5.78999867	    -63.66709438	    -14.03943594	      0.00000000	      0.00000000	      0.00000000	      0.00000000	      0.00000000
      0.03000000	     57.38188793	      4.40846303	     -4.34556843	      1.28674369	      1.04432903	     -0.28748835	     23.35753925	     -5.57106236	     -2.02764418	     -8.38838780	    -29.30591002	      0.00000000	      0.00000000	     13.71930652	    -11.19624063	     -5.78636677	    -63.66857860	    -14.04196674	      0.00000000	      0.00000000	      0.00000000	      0.00000000	      0.00000000
      0.04000000	     57.38276877	      4.41600771	     -4.34624963	      1.28674112	      1.04432312	     -0.28748021	     23.36211068	     -5.58174499	     -2.02895481	     -8.39996083	    -29.30648339	      0.00000000	      0.00000000	     13.72233732	    -11.18839811	     -5.78278924	    -63.66978790	    -14.04537660	      0.00000000	      0.00000000	      0.00000000	      0.00000000	      0.00000000
      0.05000000	     57.38358831	      4.42119833	     -4.34713270	      1.28674422	      1.04432799	     -0.28748390	     23.36381568	     -5.58985141	     -2.03205929	     -8.41075757	    -29.30732343	      0.00000000	      0.00000000	     13.72430152	    -11.18325810	     -5.77996504	    -63.67060806	    -14.04977769	      0.00000000	      0.00000000	      0.00000000	      0.00000000	      0.00000000
      0.06000000	     57.38491662	      4.42316547	     -4.34773528	      1.28674466	      1.04433179	     -0.28748880	     23.36240007	     -5.59466649	     -2.03650932	     -8.42009406	    -29.30870507	      0.00000000	      0.00000000	     13.72449541	    -11.18096705	     -5.77865893	    -63.67083224	    -14.05511274	      0.00000000	      0.00000000	      0.00000000	      0.00000000	      0.00000000
      0.07000000	     57.38747707	      4.42178837	     -4.34796913	      1.28673735	      1.04432989	     -0.28748820	     23.35805013	     -5.59617458	     -2.04147648	     -8.42749573	    -29.31070508	      0.00000000	      0.00000000	     13.72262303	    -11.18142463	     -5.77926723	    -63.67004843	    -14.06109883	      0.00000000	      0.00000000	      0.00000000	      0.00000000	      0.00000000
      0.08000000	     57.39171117	      4.41791188	     -4.34824646	      1.28672308	      1.04432701	     -0.28748632	     23.35128704	     -5.59513230	     -2.04606603	     -8.43288458	    -29.31300090	      0.00000000	      0.00000000	     13.71887485	    -11.18437143	     -5.78156971	    -63.66769417	    -14.06723500	      0.00000000	      0.00000000	      0.00000000	      0.00000000	      0.00000000
      0.09000000	     57.39735131	      4.41285835	     -4.34901220	      1.28670679	      1.04432986	     -0.28748705	     23.34294406	     -5.59285114	     -2.04964353	     -8.43655940	    -29.31485639	      0.00000000	      0.00000000	     13.71360263	    -11.18914945	     -5.78492926	    -63.66338006	    -14.07288667	      0.00000000	      0.00000000	      0.00000000	      0.00000000	      0.00000000
      0.10000000	     57.40347734	      4.40786520	     -4.35030602	      1.28669414	      1.04433812	     -0.28748685	     23.33407996	     -5.59075078	     -2.05203646	     -8.43903326	    -29.31535237	      0.00000000	      0.00000000	     13.70713459	    -11.19460268	     -5.78860967	    -63.65716579	    -14.07742936	      0.00000000	      0.00000000	      0.00000000	      0.00000000	      0.00000000
      0.11000000	     57.40899461	      4.40390280	     -4.35178016	      1.28668548	      1.04434632	     -0.28748364	     23.32569115	     -5.58987428	     -2.05356692	     -8.44088450	    -29.31376996	      0.00000000	      0.00000000	     13.69993013	    -11.19941810	     -5.79192238	    -63.64959482	    -14.08040778	      0.00000000	      0.00000000	      0.00000000	      0.00000000	      0.00000000
      0.12000000	     57.41315372	      4.40158316	     -4.35292147	      1.28667703	      1.04435315	     -0.28748153	     23.31842342	     -5.59063393	     -2.05491176	     -8.44266256	    -29.30994363	      0.00000000	      0.00000000	     13.69271505	    -11.20257434	     -5.79433766	    -63.64157070	    -14.08165809	      0.00000000	      0.00000000	      0.00000000	      0.00000000	      0.00000000
      0.13000000	     57.41580440	      4.40098792	     -4.35324746	      1.28667005	      1.04436398	     -0.28748349	     23.31245449	     -5.59287127	     -2.05684836	     -8.44482633	    -29.30440312	      0.00000000	      0.00000000	     13.68633676	    -11.20359042	     -5.79566989	    -63.63415430	    -14.08135515	      0.00000000	      0.00000000	      0.00000000	      0.00000000	      0.00000000
      0.14000000	     57.41724997	      4.40167234	     -4.35250947	      1.28666963	      1.04438124	     -0.28748674	     23.30753532	     -5.59605051	     -2.05998699	     -8.44769737	    -29.29823856	      0.00000000	      0.00000000	     13.68137095	    -11.20260782	     -5.79617678	    -63.62833780	    -14.07997260	      0.00000000	      0.00000000	      0.00000000	      0.00000000	      0.00000000
      0.15000000	     57.41801312	      4.40298428	     -4.35090079	      1.28667564	      1.04439810	     -0.28748860	     23.30314477	     -5.59943727	     -2.06457077	     -8.45141861	    -29.29276823	      0.00000000	      0.00000000	     13.67785565	    -11.20037582	     -5.79640927	    -63.62479937	    -14.07816826	      0.00000000	      0.00000000	      0.00000000	      0.00000000	      0.00000000
      0.16000000	     57.41876809	      4.40439288	     -4.34902079	      1.28668444	      1.04440657	     -0.28749028	     23.29872506	     -5.60226312	     -2.07037876	     -8.45592832	    -29.28915327	      0.00000000	      0.00000000	     13.67536620	    -11.19799803	     -5.79692217	    -63.62371392	    -14.07662921	      0.00000000	      0.00000000	      0.00000000	      0.00000000	      0.00000000
      0.17000000	     57.42022131	      4.40547984	     -4.34750648	      1.28669313	      1.04440663	     -0.28749271	     23.29387983	     -5.60386821	     -2.07674189	     -8.46099342	    -29.28809407	      0.00000000	      0.00000000	     13.67323597	    -11.19640298	     -5.79804378	    -63.62473864	    -14.07591904	      0.00000000	      0.00000000	      0.00000000	      0.00000000	      0.00000000
      0.18000000	     57.42287652	      4.40581938	     -4.34669944	      1.28669738	      1.04440244	     -0.28749413	     23.28844672	     -5.60385705	     -2.08268593	     -8.46629544	    -29.28969803	      0.00000000	      0.00000000	     13.67080007	    -11.19592738	     -5.79971518	    -63.62714760	    -14.07636376	      0.00000000	      0.00000000	      0.00000000	      0.00000000	      0.00000000
      0.19000000	     57.42686438	      4.40517539	     -4.34660950	      1.28669435	      1.04439546	     -0.28749330	     23.28242903	     -5.60228420	     -2.08719798	     -8.47153203	    -29.29353628	      0.00000000	      0.00000000	     13.66768590	    -11.19635428	     -5.80140636	    -63.63002996	    -14.07799714	      0.00000000	      0.00000000	      0.00000000	      0.00000000	      0.00000000
      0.20000000	     57.43183164	      4.40380889	     -4.34699724	      1.28668704	      1.04438605	     -0.28749148	     23.27584099	     -5.59970224	     -2.08953976	     -8.47651014	    -29.29882945	      0.00000000	      0.00000000	     13.66401811	    -11.19720155	     -5.80229074	    -63.63253704	    -14.08055860	      0.00000000	      0.00000000	      0.00000000	      0.00000000	      0.00000000
      0.21000000	     57.43699593	      4.40244910	     -4.34735897	      1.28668042	      1.04437715	     -0.28749143	     23.26875560	     -5.59695105	     -2.08945936	     -8.48112165	    -29.30465691	      0.00000000	      0.00000000	     13.66033624	    -11.19794093	     -5.80169800	    -63.63415262	    -14.08353004	      0.00000000	      0.00000000	      0.00000000	      0.00000000	      0.00000000
      0.22000000	     57.44150312	      4.40188522	     -4.34696548	      1.28667712	      1.04437257	     -0.28749501	     23.26163848	     -5.59486159	     -2.08720352	     -8.48517979	    -29.31011469	      0.00000000	      0.00000000	     13.65729071	    -11.19810995	     -5.79953728	    -63.63484184	    -14.08621892	      0.00000000	      0.00000000	      0.00000000	      0.00000000	      0.00000000
